<svg xmlns="http://www.w3.org/2000/svg" xmlns:xlink="http://www.w3.org/1999/xlink" id="Capa_1" data-name="Capa 1" width="176.21" height="93.76" viewBox="0 0 176.21 93.76"><defs><clipPath id="clip-path" transform="translate(-17.73 -2.24)"><rect id="SVGID" fill="none" x="16.1" y="-9.16" width="177.18" height="84.32"></rect></clipPath></defs><title>gs2-logo-1</title><g class="cls-2"><path fill="#6F8FCC" d="M71.06,71.81c-4.8,6.06-12.25,8.66-19.9,8.66-20.69,0-33.43-15.78-33.43-35.32C17.73,19,36.45,8.48,52.24,8.48c17.84,0,29.12,9.53,32.25,25.7H63.81a10.19,10.19,0,0,0-10.2-8.57c-14.8,0-14.31,15.3-14.31,20,0,6.45,2.64,17.71,15.78,17.71,5,0,10.1-2.5,11.18-7.6H56.75V41H85.38V78.84H71.75Z" transform="translate(-17.73 -2.24)"></path><path fill="#6F8FCC" d="M99.22,60a15.12,15.12,0,0,0,1,5.54c1.93,5.06,7.71,6.11,12.65,6.11,4.34,0,11-1.41,11-7.65,0-4.35-3.73-5.53-18.55-9.65C91.63,50.61,76.09,47,76.09,30c0-19.42,17-27.77,34.7-27.77,18.68,0,35.19,6.94,35.91,27.42H121.64A6.39,6.39,0,0,0,118.5,23a14,14,0,0,0-7.83-2.12c-3.61,0-9.52.94-9.52,5.65.48,6,12.77,7.3,24.94,10.59s24.23,8.83,24.23,24.25c0,21.89-20.61,28.95-39.77,28.95-9.76,0-37.6-3.41-37.84-30.25Z" transform="translate(-17.73 -2.24)"></path><path fill="#A8A39C" d="M136.41,38C135.33,19.59,147,9,165.22,9,181.73,9,193,15.84,193,30.08c0,17.13-17,22.51-29.79,30.21v.1h30.77V76.74H135a24.92,24.92,0,0,1,4.89-16.54c5.66-7.8,15.43-12.9,24.12-18.09,3.52-2.12,9.18-4.81,9.18-9.72,0-6.06-3.61-8.18-8.2-8.18-7.81,0-10.45,5.58-10.26,13.76Z" transform="translate(-17.73 -2.24)"></path></g><path fill="#F0F0EE" d="M34.84,89.33v-1.7h4.47v4a5.54,5.54,0,0,1-1.89,1.1,7.05,7.05,0,0,1-2.5.47,5.62,5.62,0,0,1-2.81-.67,4.19,4.19,0,0,1-1.8-1.9,6,6,0,0,1-.6-2.68,5.71,5.71,0,0,1,.67-2.8,4.48,4.48,0,0,1,2-1.88,5.41,5.41,0,0,1,2.46-.5,4.91,4.91,0,0,1,3,.79,3.55,3.55,0,0,1,1.39,2.17l-2.06.38A2.19,2.19,0,0,0,36.3,85a2.48,2.48,0,0,0-1.49-.43,2.8,2.8,0,0,0-2.16.85,3.49,3.49,0,0,0-.81,2.51,3.92,3.92,0,0,0,.82,2.69,2.73,2.73,0,0,0,2.13.9,3.79,3.79,0,0,0,1.3-.25,4.65,4.65,0,0,0,1.13-.61V89.33Z" transform="translate(-17.73 -2.24)"></path><path fill="#F0F0EE" d="M46.09,90.71l2,.32a3.17,3.17,0,0,1-1.19,1.62,3.65,3.65,0,0,1-2,.55A3.36,3.36,0,0,1,42,92a4.09,4.09,0,0,1-.74-2.52,4,4,0,0,1,1-2.85,3.22,3.22,0,0,1,2.44-1,3.32,3.32,0,0,1,2.62,1.08,4.7,4.7,0,0,1,.92,3.3H43.23a1.94,1.94,0,0,0,.47,1.34,1.55,1.55,0,0,0,1.14.47,1.27,1.27,0,0,0,.78-.24,1.49,1.49,0,0,0,.47-.8m.11-1.95a1.83,1.83,0,0,0-.44-1.28,1.37,1.37,0,0,0-1-.44,1.43,1.43,0,0,0-1.07.46,1.85,1.85,0,0,0-.41,1.26Z" transform="translate(-17.73 -2.24)"></path><path fill="#F0F0EE" d="M49.64,91l2-.3a1.37,1.37,0,0,0,.51.86,1.73,1.73,0,0,0,1.08.29,2,2,0,0,0,1.15-.27.62.62,0,0,0,.26-.52.51.51,0,0,0-.14-.36,1.65,1.65,0,0,0-.66-.26,10.38,10.38,0,0,1-3-.94,1.86,1.86,0,0,1-.88-1.64,2,2,0,0,1,.76-1.6,3.63,3.63,0,0,1,2.37-.65,4.28,4.28,0,0,1,2.27.49,2.55,2.55,0,0,1,1,1.45l-1.86.34a1.13,1.13,0,0,0-.45-.66,1.69,1.69,0,0,0-1-.23,2.15,2.15,0,0,0-1.11.22.46.46,0,0,0-.23.39.43.43,0,0,0,.2.35,7.32,7.32,0,0,0,1.84.54,5.53,5.53,0,0,1,2.19.86,1.77,1.77,0,0,1,.62,1.44,2.19,2.19,0,0,1-.85,1.73,3.84,3.84,0,0,1-2.53.72,4.18,4.18,0,0,1-2.41-.61A2.82,2.82,0,0,1,49.64,91" transform="translate(-17.73 -2.24)"></path><path fill="#F0F0EE" d="M62.3,85.73v1.54H61v2.94a6.57,6.57,0,0,0,0,1.05.4.4,0,0,0,.17.24.59.59,0,0,0,.33.1,2.42,2.42,0,0,0,.79-.19l.17,1.5a4,4,0,0,1-1.55.29A2.42,2.42,0,0,1,60,93a1.29,1.29,0,0,1-.63-.45,1.84,1.84,0,0,1-.28-.75A9.71,9.71,0,0,1,59,90.46V87.27h-.9V85.73H59V84.28l2-1.13v2.58Z" transform="translate(-17.73 -2.24)"></path><path fill="#F0F0EE" d="M64.24,83h2v1.79h-2Zm0,2.78h2V93h-2Z" transform="translate(-17.73 -2.24)"></path><path fill="#F0F0EE" d="M68.35,89.28a3.9,3.9,0,0,1,.48-1.86A3.26,3.26,0,0,1,70.2,86a4.08,4.08,0,0,1,2-.48,3.74,3.74,0,0,1,2.76,1.08,3.83,3.83,0,0,1-2.75,6.56,4.42,4.42,0,0,1-2-.45,3.16,3.16,0,0,1-1.41-1.34,4.36,4.36,0,0,1-.48-2.13m2,.1a2.41,2.41,0,0,0,.53,1.67,1.69,1.69,0,0,0,1.29.57,1.66,1.66,0,0,0,1.29-.57A2.43,2.43,0,0,0,74,89.37a2.35,2.35,0,0,0-.53-1.65,1.63,1.63,0,0,0-1.29-.58,1.66,1.66,0,0,0-1.29.58,2.38,2.38,0,0,0-.53,1.66m.83-4.55,1-2h2.2l-1.93,2Z" transform="translate(-17.73 -2.24)"></path><path fill="#F0F0EE" d="M84.9,93h-2V89.31a5.92,5.92,0,0,0-.12-1.53,1,1,0,0,0-.41-.54,1.19,1.19,0,0,0-.68-.2,1.64,1.64,0,0,0-.92.28,1.36,1.36,0,0,0-.56.73,6.2,6.2,0,0,0-.15,1.68V93h-2v-7.3H80V86.8a3,3,0,0,1,2.45-1.24,2.88,2.88,0,0,1,1.19.24,1.92,1.92,0,0,1,.82.58,2.13,2.13,0,0,1,.38.82,5.39,5.39,0,0,1,.11,1.29Z" transform="translate(-17.73 -2.24)"></path><path fill="#F0F0EE" d="M98.86,93H97V92a2.88,2.88,0,0,1-1.08.93,2.72,2.72,0,0,1-1.25.31,2.84,2.84,0,0,1-2.19-1,4.86,4.86,0,0,1,0-5.65,3,3,0,0,1,2.25-1,2.85,2.85,0,0,1,2.16,1V83h2ZM93.6,89.22a3.32,3.32,0,0,0,.33,1.7,1.5,1.5,0,0,0,1.33.75,1.48,1.48,0,0,0,1.16-.56,2.59,2.59,0,0,0,.48-1.7,2.81,2.81,0,0,0-.47-1.81A1.47,1.47,0,0,0,95.25,87a1.49,1.49,0,0,0-1.17.55,2.42,2.42,0,0,0-.48,1.63" transform="translate(-17.73 -2.24)"></path><path fill="#F0F0EE" d="M105.68,90.71l2,.32a3.17,3.17,0,0,1-1.19,1.62,3.66,3.66,0,0,1-2,.55A3.38,3.38,0,0,1,101.53,92a4.15,4.15,0,0,1-.73-2.52,4,4,0,0,1,1-2.85,3.21,3.21,0,0,1,2.44-1,3.32,3.32,0,0,1,2.62,1.08,4.75,4.75,0,0,1,.92,3.3h-4.94a2,2,0,0,0,.48,1.34,1.54,1.54,0,0,0,1.14.47,1.24,1.24,0,0,0,.77-.24,1.56,1.56,0,0,0,.48-.8m.11-1.95a1.83,1.83,0,0,0-.44-1.28,1.37,1.37,0,0,0-1-.44,1.41,1.41,0,0,0-1.07.46,1.81,1.81,0,0,0-.41,1.26Z" transform="translate(-17.73 -2.24)"></path><path fill="#F0F0EE" d="M114.5,93V83h3.33a12.3,12.3,0,0,1,2.46.15,2.69,2.69,0,0,1,1.48,1,3.07,3.07,0,0,1,.6,2,3.28,3.28,0,0,1-.35,1.57,2.81,2.81,0,0,1-.87,1,3.08,3.08,0,0,1-1.07.48,12.88,12.88,0,0,1-2.15.14h-1.36V93Zm2.07-8.37v2.86h1.14a5.35,5.35,0,0,0,1.64-.16,1.32,1.32,0,0,0,.64-.49,1.34,1.34,0,0,0,.24-.79,1.29,1.29,0,0,0-.33-.91,1.5,1.5,0,0,0-.83-.44,9.64,9.64,0,0,0-1.5-.07Z" transform="translate(-17.73 -2.24)"></path><path fill="#F0F0EE" d="M126.51,93h-2v-7.3h1.83v1a3.17,3.17,0,0,1,.84-1,1.57,1.57,0,0,1,.86-.24,2.53,2.53,0,0,1,1.29.37l-.61,1.69a1.68,1.68,0,0,0-.92-.32,1.09,1.09,0,0,0-.7.22,1.54,1.54,0,0,0-.45.81,11.11,11.11,0,0,0-.17,2.45Z" transform="translate(-17.73 -2.24)"></path><path fill="#F0F0EE" d="M130.33,89.28a3.9,3.9,0,0,1,.48-1.86A3.26,3.26,0,0,1,132.18,86a4.08,4.08,0,0,1,2-.48,3.74,3.74,0,0,1,2.77,1.08A3.68,3.68,0,0,1,138,89.36a3.75,3.75,0,0,1-1.09,2.75,3.72,3.72,0,0,1-2.75,1.09,4.3,4.3,0,0,1-1.95-.46,3.16,3.16,0,0,1-1.41-1.32,4.42,4.42,0,0,1-.48-2.14m2,.1a2.4,2.4,0,0,0,.52,1.67,1.76,1.76,0,0,0,2.59,0,2.43,2.43,0,0,0,.52-1.68,2.35,2.35,0,0,0-.52-1.65,1.74,1.74,0,0,0-2.59,0,2.38,2.38,0,0,0-.52,1.66" transform="translate(-17.73 -2.24)"></path><path fill="#F0F0EE" d="M139.19,85.73h2.1l1.77,5.19,1.74-5.19h2l-2.63,7L143.74,94a5.51,5.51,0,0,1-.49,1,2.31,2.31,0,0,1-.54.54,2.16,2.16,0,0,1-.75.33,3.89,3.89,0,0,1-1,.12,5.24,5.24,0,0,1-1.11-.12l-.17-1.51a4.36,4.36,0,0,0,.83.09,1.24,1.24,0,0,0,1-.4,2.73,2.73,0,0,0,.5-1Z" transform="translate(-17.73 -2.24)"></path><path fill="#F0F0EE" d="M153,90.71l2,.32a3.17,3.17,0,0,1-1.19,1.62,3.65,3.65,0,0,1-2,.55A3.36,3.36,0,0,1,148.84,92a4.16,4.16,0,0,1-.74-2.52,4,4,0,0,1,1-2.85,3.22,3.22,0,0,1,2.44-1,3.32,3.32,0,0,1,2.62,1.08,4.7,4.7,0,0,1,.92,3.3h-4.93a1.94,1.94,0,0,0,.47,1.34,1.55,1.55,0,0,0,1.14.47,1.25,1.25,0,0,0,.78-.24,1.49,1.49,0,0,0,.47-.8m.11-1.95a1.83,1.83,0,0,0-.44-1.28,1.37,1.37,0,0,0-1-.44,1.43,1.43,0,0,0-1.07.46,1.85,1.85,0,0,0-.41,1.26Z" transform="translate(-17.73 -2.24)"></path><path fill="#F0F0EE" d="M163.71,87.89l-1.94.34a1.23,1.23,0,0,0-1.34-1.14,1.48,1.48,0,0,0-1.17.49,2.49,2.49,0,0,0-.44,1.67,3,3,0,0,0,.44,1.84,1.48,1.48,0,0,0,1.2.53,1.31,1.31,0,0,0,.91-.31,1.88,1.88,0,0,0,.51-1.07l1.93.32a3.32,3.32,0,0,1-1.15,2,3.61,3.61,0,0,1-2.29.67,3.47,3.47,0,0,1-2.61-1,4.54,4.54,0,0,1,0-5.62,3.49,3.49,0,0,1,2.63-1,3.64,3.64,0,0,1,2.16.58,3.13,3.13,0,0,1,1.15,1.75" transform="translate(-17.73 -2.24)"></path><path fill="#F0F0EE" d="M169.19,85.73v1.54h-1.34v2.94a6.57,6.57,0,0,0,0,1.05.4.4,0,0,0,.17.24.59.59,0,0,0,.33.1,2.36,2.36,0,0,0,.79-.19l.17,1.5a4,4,0,0,1-1.55.29,2.42,2.42,0,0,1-1-.18,1.29,1.29,0,0,1-.63-.45,2,2,0,0,1-.28-.75,9.71,9.71,0,0,1-.06-1.36V87.27H165V85.73h.9V84.28l2-1.13v2.58Z" transform="translate(-17.73 -2.24)"></path><path fill="#F0F0EE" d="M170.68,89.28a3.9,3.9,0,0,1,.48-1.86A3.26,3.26,0,0,1,172.53,86a4.08,4.08,0,0,1,2-.48,3.76,3.76,0,0,1,2.77,1.08,3.84,3.84,0,0,1-2.76,6.56,4.3,4.3,0,0,1-2-.46,3.11,3.11,0,0,1-1.41-1.32,4.42,4.42,0,0,1-.48-2.14m2,.1a2.41,2.41,0,0,0,.53,1.67,1.76,1.76,0,0,0,2.59,0,2.43,2.43,0,0,0,.52-1.68,2.35,2.35,0,0,0-.52-1.65,1.74,1.74,0,0,0-2.59,0,2.38,2.38,0,0,0-.53,1.66" transform="translate(-17.73 -2.24)"></path><path fill="#F0F0EE" d="M179.77,91l2-.3a1.41,1.41,0,0,0,.51.86,1.73,1.73,0,0,0,1.08.29,2,2,0,0,0,1.15-.27.62.62,0,0,0,.26-.52.51.51,0,0,0-.14-.36,1.65,1.65,0,0,0-.66-.26,10.5,10.5,0,0,1-3-.94,1.86,1.86,0,0,1-.88-1.64,2,2,0,0,1,.76-1.6,3.63,3.63,0,0,1,2.37-.65,4.25,4.25,0,0,1,2.27.49,2.55,2.55,0,0,1,1,1.45l-1.85.34a1.14,1.14,0,0,0-.46-.66,1.69,1.69,0,0,0-.95-.23,2.18,2.18,0,0,0-1.11.22.45.45,0,0,0-.22.39.42.42,0,0,0,.19.35,7.32,7.32,0,0,0,1.84.54,5.66,5.66,0,0,1,2.2.86,1.79,1.79,0,0,1,.61,1.44,2.19,2.19,0,0,1-.85,1.73,3.84,3.84,0,0,1-2.53.72,4.18,4.18,0,0,1-2.41-.61A2.82,2.82,0,0,1,179.77,91" transform="translate(-17.73 -2.24)"></path><rect fill="#F0F0EE" x="8.38" y="72.63" width="166.93" height="1.71"></rect></svg>